<svg xmlns="http://www.w3.org/2000/svg" width="64" height="64" viewBox="0 0 64 64" fill="none">
  <rect width="64" height="64" rx="12" fill="#000000"/>
  <path d="M32 18C23.716 18 17 24.716 17 33C17 41.284 23.716 48 32 48C40.284 48 47 41.284 47 33C47 24.716 40.284 18 32 18ZM42.5 33C42.5 37.1423 39.6423 40.5 35.5 40.5C31.3577 40.5 28.5 37.1423 28.5 33C28.5 28.8577 31.3577 25.5 35.5 25.5C39.6423 25.5 42.5 28.8577 42.5 33Z" fill="white"/>
  <path d="M27 35C28.6569 35 30 33.6569 30 32C30 30.3431 28.6569 29 27 29C25.3431 29 24 30.3431 24 32C24 33.6569 25.3431 35 27 35Z" fill="white"/>
</svg> 